# xmcd CD database file
#
# Track frame offsets:
#	150
#	19125
#	38402
#	74635
#	106132
#	130425
#	150982
#	169730
#	185792
#	215332
#	228155
#	253430
#
# Disc length: 3759 seconds
#
# Revision: 0
# Processed by: cddbd v1.5.2PL0 Copyright (c) Steve Scherf et al.
# Submitted via: CDex 1.51
#
DISCID=a40ead0c
DTITLE=Tito Puente - Tito Puente
DYEAR=1900
DGENRE=Jazz
TTITLE0=Airegin
TTITLE1=Lullaby Of Birdland 
TTITLE2=On Broadway 
TTITLE3=On Green Dolphin Street
TTITLE4=Prelude To A Kiss
TTITLE5=Donna Lee 
TTITLE6=Consternation
TTITLE7=Jordu 
TTITLE8=If You Could See Me Now
TTITLE9=Lucky Dog
TTITLE10=Killer Joe
TTITLE11=Nostalgia On Times Square
EXTD=
EXTT0=
EXTT1=
EXTT2=
EXTT3=
EXTT4=
EXTT5=
EXTT6=
EXTT7=
EXTT8=
EXTT9=
EXTT10=
EXTT11=
PLAYORDER=
